<svg width="24" height="24" viewBox="0 0 24 24" fill="none" xmlns="http://www.w3.org/2000/svg">
<path d="M8.19587 0.697251C10.4037 2.67889 11.8579 4.93241 12.6636 7.16895C9.40379 5.9196 5.5795 5.35147 1.50006 6.05413C6.00521 5.65864 9.96212 6.6635 13.0137 8.291C15.031 15.8744 9.71092 22.6981 1.24951 17.2983C6.53092 21.7925 10.6937 22.0709 13.1998 20.1533C27.6128 23.788 24.3984 12.8361 14.483 7.96142C13.2696 5.34556 11.2139 2.77264 8.19582 0.697205L8.19587 0.697251ZM15.1407 9.62553C20.9244 13.8794 21.6761 20.2954 13.3287 20.0522C15.774 18.0617 16.5561 13.9157 15.1407 9.62553Z" fill="#D5D7DA"/>
</svg>
