<svg width="24" height="24" viewBox="0 0 24 24" fill="none" xmlns="http://www.w3.org/2000/svg">
<g clip-path="url(#clip0_2003_3399)">
<path d="M9.90471 3.79173C5.74221 3.80533 2.63486 5.1422 0.885488 6.79689L1.46486 7.40626C4.37955 4.65751 12.1125 2.55001 22.7625 8.28752L23.1656 7.54689C18.0656 4.80001 13.575 3.77955 9.90471 3.79173ZM5.36252 7.7672C2.73846 8.79376 1.55814 10.8422 0.83252 12.1922L1.57596 12.5953C2.29033 11.2594 3.31643 9.47345 5.6719 8.5547C8.02502 7.63595 11.7891 7.57502 18.0047 9.99376L18.3141 9.20626C14.0156 7.67814 9.54846 6.16876 5.36252 7.7672ZM17.5688 11.3297C9.24846 15.6188 5.38127 14.386 1.04721 13.2703L0.837207 14.0906C1.58533 14.2828 2.33439 14.4797 3.10549 14.6485C2.19799 15.286 1.75455 15.4547 1.22158 15.8016C2.42393 15.75 3.19877 15.3703 4.02049 15.0235C3.4308 15.75 2.91658 16.4766 1.86424 17.2453C3.1308 16.9078 4.35049 16.5328 5.26877 15.8953C4.68424 16.8328 3.96939 17.7469 3.16455 18.6422C4.54408 18.211 5.58752 17.1703 6.67033 16.1391C6.65627 17.0344 6.23908 17.9297 5.94377 18.825C6.92814 17.9203 7.35002 17.2688 7.94533 16.3641C7.88908 17.7328 8.27346 18.8391 8.61096 20.2078C8.8219 18.9 9.05627 17.5875 9.05627 16.3219C9.7594 17.4938 10.7016 18.5625 11.8875 19.5141C11.2547 18.4125 10.6219 17.3156 10.2891 16.1719C11.4985 17.3203 12.7594 18.436 14.2735 19.3688C13.2656 18.2672 12.3094 17.1516 11.6906 15.961C12.7781 16.9828 13.8703 18.0047 15.6891 18.5953C14.3719 17.6906 13.5281 16.6641 12.9094 15.5813C14.161 16.6313 15.5625 17.5641 17.2547 18.2625C15.7594 17.2313 14.9156 16.2 14.3391 15.1688C15.5766 16.1906 16.9922 16.8656 18.225 17.5406C17.25 16.6406 16.186 15.7781 15.675 14.7094C16.6828 15.586 17.8735 15.9656 19.05 16.3735C17.9578 15.6469 17.3297 15.1547 16.6781 14.2969C17.7188 14.8219 18.586 15.0281 19.8375 15.3375C19.0219 14.8828 18.1547 14.2594 17.5969 13.7203C18.8485 14.0344 20.2219 14.086 21.5156 14.0672C20.3297 13.7578 19.0406 13.486 18.3563 13.0125C21.0938 13.036 21.2625 12.7969 22.411 12.225C19.9828 12.4031 18.4406 12.361 17.5688 11.3297Z" fill="#D5D7DA"/>
</g>
<defs>
<clipPath id="clip0_2003_3399">
<rect width="24" height="24" fill="white"/>
</clipPath>
</defs>
</svg>
